<?xml version="1.0" encoding="UTF-8"?>
<svg version="1.1" xmlns="http://www.w3.org/2000/svg" width="500" height="500">
<path d="M0 0 C165 0 330 0 500 0 C500 165 500 330 500 500 C335 500 170 500 0 500 C0 335 0 170 0 0 Z " fill="#FEFEFE" transform="translate(0,0)"/>
<path d="M0 0 C59.4 0 118.8 0 180 0 C180 6.6 180 13.2 180 20 C166.8 20 153.6 20 140 20 C140 46.4 140 72.8 140 100 C192.8 100 245.6 100 300 100 C300 106.6 300 113.2 300 120 C280.2 120 260.4 120 240 120 C240 192.6 240 265.2 240 340 C259.8 340 279.6 340 300 340 C300 346.6 300 353.2 300 360 C273.6 360 247.2 360 220 360 C220 340.2 220 320.4 220 300 C206.8 300 193.6 300 180 300 C180 293.4 180 286.8 180 280 C193.2 280 206.4 280 220 280 C220 266.8 220 253.6 220 240 C193.6 240 167.2 240 140 240 C140 273 140 306 140 340 C153.2 340 166.4 340 180 340 C180 346.6 180 353.2 180 360 C127.2 360 74.4 360 20 360 C20 353.4 20 346.8 20 340 C53 340 86 340 120 340 C120 307 120 274 120 240 C106.8 240 93.6 240 80 240 C80 259.8 80 279.6 80 300 C40.4 300 0.8 300 -40 300 C-40 333 -40 366 -40 400 C85.4 400 210.8 400 340 400 C340 367 340 334 340 300 C320.2 300 300.4 300 280 300 C280 253.8 280 207.6 280 160 C299.8 160 319.6 160 340 160 C340 127 340 94 340 60 C307 60 274 60 240 60 C240 53.4 240 46.8 240 40 C273 40 306 40 340 40 C340 26.8 340 13.6 340 0 C346.6 0 353.2 0 360 0 C360 79.2 360 158.4 360 240 C353.4 240 346.8 240 340 240 C340 220.2 340 200.4 340 180 C326.8 180 313.6 180 300 180 C300 213 300 246 300 280 C319.8 280 339.6 280 360 280 C360 319.6 360 359.2 360 400 C379.8 400 399.6 400 420 400 C420 406.6 420 413.2 420 420 C261.6 420 103.2 420 -60 420 C-60 334.2 -60 248.4 -60 160 C-53.4 160 -46.8 160 -40 160 C-40 199.6 -40 239.2 -40 280 C-7 280 26 280 60 280 C60 260.2 60 240.4 60 220 C112.8 220 165.6 220 220 220 C220 187 220 154 220 120 C187 120 154 120 120 120 C120 87 120 54 120 20 C87 20 54 20 20 20 C20 33.2 20 46.4 20 60 C13.4 60 6.8 60 0 60 C0 40.2 0 20.4 0 0 Z " fill="#000000" transform="translate(70,70)"/>
<path d="M0 0 C158.4 0 316.8 0 480 0 C480 138.6 480 277.2 480 420 C473.4 420 466.8 420 460 420 C460 288 460 156 460 20 C427 20 394 20 360 20 C360 33.2 360 46.4 360 60 C353.4 60 346.8 60 340 60 C340 46.8 340 33.6 340 20 C234.4 20 128.8 20 20 20 C20 66.2 20 112.4 20 160 C53 160 86 160 120 160 C120 146.8 120 133.6 120 120 C126.6 120 133.2 120 140 120 C140 139.8 140 159.6 140 180 C120.2 180 100.4 180 80 180 C80 193.2 80 206.4 80 220 C132.8 220 185.6 220 240 220 C240 226.6 240 233.2 240 240 C187.2 240 134.4 240 80 240 C80 259.8 80 279.6 80 300 C73.4 300 66.8 300 60 300 C60 260.4 60 220.8 60 180 C40.2 180 20.4 180 0 180 C0 120.6 0 61.2 0 0 Z " fill="#000000" transform="translate(10,10)"/>
</svg>
